<svg width="76" height="48" viewBox="0 0 76 48" fill="none" xmlns="http://www.w3.org/2000/svg">
<rect x="1.25" y="1.25" width="73.5" height="45.5" rx="4.75" stroke="black" stroke-opacity="0.4" stroke-width="1.5"/>
<path d="M14.992 24.096C14.992 22.2613 15.2907 20.832 15.888 19.808C16.4853 18.7733 17.5307 18.256 19.024 18.256C20.5067 18.256 21.5467 18.7733 22.144 19.808C22.7413 20.832 23.04 22.2613 23.04 24.096C23.04 25.9627 22.7413 27.4133 22.144 28.448C21.5467 29.4827 20.5067 30 19.024 30C17.5307 30 16.4853 29.4827 15.888 28.448C15.2907 27.4133 14.992 25.9627 14.992 24.096ZM21.6 24.096C21.6 23.168 21.536 22.384 21.408 21.744C21.2907 21.0933 21.04 20.5707 20.656 20.176C20.2827 19.7813 19.7387 19.584 19.024 19.584C18.2987 19.584 17.744 19.7813 17.36 20.176C16.9867 20.5707 16.736 21.0933 16.608 21.744C16.4907 22.384 16.432 23.168 16.432 24.096C16.432 25.056 16.4907 25.8613 16.608 26.512C16.736 27.1627 16.9867 27.6853 17.36 28.08C17.744 28.4747 18.2987 28.672 19.024 28.672C19.7387 28.672 20.2827 28.4747 20.656 28.08C21.04 27.6853 21.2907 27.1627 21.408 26.512C21.536 25.8613 21.6 25.056 21.6 24.096ZM25.0069 21.344C25.0815 20.3627 25.4602 19.5947 26.1429 19.04C26.8255 18.4853 27.7109 18.208 28.7989 18.208C29.5242 18.208 30.1482 18.3413 30.6709 18.608C31.2042 18.864 31.6042 19.216 31.8709 19.664C32.1482 20.112 32.2869 20.6187 32.2869 21.184C32.2869 21.8453 32.0949 22.416 31.7109 22.896C31.3375 23.376 30.8469 23.6853 30.2389 23.824V23.904C30.9322 24.0747 31.4815 24.4107 31.8869 24.912C32.2922 25.4133 32.4949 26.0693 32.4949 26.88C32.4949 27.488 32.3562 28.0373 32.0789 28.528C31.8015 29.008 31.3855 29.3867 30.8309 29.664C30.2762 29.9413 29.6095 30.08 28.8309 30.08C27.7002 30.08 26.7722 29.7867 26.0469 29.2C25.3215 28.6027 24.9162 27.76 24.8309 26.672H26.2389C26.3135 27.312 26.5749 27.8347 27.0229 28.24C27.4709 28.6453 28.0682 28.848 28.8149 28.848C29.5615 28.848 30.1269 28.656 30.5109 28.272C30.9055 27.8773 31.1029 27.3707 31.1029 26.752C31.1029 25.952 30.8362 25.376 30.3029 25.024C29.7695 24.672 28.9642 24.496 27.8869 24.496H27.5189V23.28H27.9029C28.8842 23.2693 29.6255 23.1093 30.1269 22.8C30.6282 22.48 30.8789 21.9893 30.8789 21.328C30.8789 20.7627 30.6922 20.3093 30.3189 19.968C29.9562 19.6267 29.4335 19.456 28.7509 19.456C28.0895 19.456 27.5562 19.6267 27.1509 19.968C26.7455 20.3093 26.5055 20.768 26.4309 21.344H25.0069Z" fill="black"/>
<path d="M53.7573 15.3667L50.4573 18.6667L49.5146 17.724L53.7573 13.4813L58 17.724L57.0573 18.6667L53.7573 15.3667Z" fill="black"/>
<path d="M54.2427 32.6333L57.5427 29.3333L58.4854 30.276L54.2427 34.5187L50 30.276L50.9427 29.3333L54.2427 32.6333Z" fill="black"/>
</svg>
